<svg xmlns="http://www.w3.org/2000/svg" width="39" height="39" fill="none">
  <symbol id="floppy" stroke="currentColor" fill="currentColor">
    <path fill="#000" d="M0 0h3v3H0zm0 3h3v3H0zm0 3h3v3H0zm0 3h3v3H0z"/>
    <path fill="#000" d="M0 11.999h3v3H0zm0 3.002h3v3H0z"/>
    <path fill="#000" d="M0 18h3v3H0zm0 3h3v3H0zm0 3h3v3H0zm0 3h3v3H0zm0 3h3v3H0zm0 3h3v3H0zm0 3h3v3H0zM33 0v3h-3V0zm-3 0v3h-3V0zm-3 0v3h-3V0zm-3 0v3h-3V0zm-3 0v3h-3V0zm-3 0v3h-3V0zm-3 0v3h-3V0zm-3 0v3H9V0zM9 0v3H6V0zM6 0v3H3V0zm30 3v3h-3V3zM9 6v3H6V6zm0-3v3H6V3zm0 6v3H6V9zm21-3v3h-3V6zm0-3v3h-3V3zm0 6v3h-3V9zm-6-3v3h-3V6zm0-3v3h-3V3zm0 6v3h-3V9zm6.001 3v3h-3v-3zm-3 0v3h-3v-3zm-3 0v3h-3v-3zm-3 0v3h-3v-3zm-3 0v3h-3v-3zm-3 0v3h-3v-3zm-3 0v3h-3v-3zm-3 0v3h-3v-3zM33 21v3h-3v-3zm-3 0v3h-3v-3zm-3 0v3h-3v-3zm-3 0v3h-3v-3zm-3 0v3h-3v-3zm-3 0v3h-3v-3zm-3 0v3h-3v-3zm-3 0v3H9v-3zm-3 0v3H6v-3zm24 3v3h-3v-3zM9 24v3H6v-3zm24 3v3h-3v-3zM9 27v3H6v-3zm24 3v3h-3v-3zM9 30v3H6v-3zm0 3v3H6v-3zm24 0v3h-3v-3zm3 3v3h-3v-3zm-3 0v3h-3v-3zm-3 0v3h-3v-3zm-3 0v3h-3v-3zm-3 0v3h-3v-3zm-3 0v3h-3v-3zm-3 0v3h-3v-3zm-3 0v3h-3v-3zm-3 0v3H9v-3zm-3 0v3H6v-3zm-3 0v3H3v-3zm33 2.999h-3v-3h3z"/>
    <path fill="#000" d="M39 36h-3v-3h3zm0-3h-3v-3h3zm0-3h-3v-3h3zm0-3h-3v-3h3zm0-3h-3v-3h3zm0-3h-3v-3h3zm0-3h-3v-3h3zm0-3.001h-3v-3h3z"/>
    <path fill="#000" d="M39 12.001h-3v-3h3zM39 9h-3V6h3z"/>
  </symbol>
</svg>